# xmcd
#
# Track frame offsets:
#	150
#	7612
#	22317
#	29842
#	50837
#	65327
#	87017
#	88690
#	102842
#	117992
#	125930
#	144560
#	167675
#	185659
#	187152
#	210135
#	227070
#
# Disc length: 3336 seconds
#
# Revision: 1
# Processed by: cddbd v1.4PL0 Copyright (c) Steve Scherf et al.
# Submitted via: EasyCDDAExtractor 5.0.6
#
DISCID=f00d0611
DTITLE=말씀묵상을 위한 연주찬양 - Good Life Music
DYEAR=2002
DGENRE=Gospel
TTITLE0=Thanks
TTITLE1=내 평생의 가는 길 (찬470장)
TTITLE2=달고 오묘한 그 말씀 (찬235장)
TTITLE3=귀하신 주여 (찬490장)
TTITLE4=사랑하는 나의 아버지
TTITLE5=주님과 같이
TTITLE6=Good 라이프 성경
TTITLE7=구주를 생각만 해도 (찬85장)
TTITLE8=예수 사랑하심은 (찬411장)
TTITLE9=어메이징 그레이스 (찬 495장)
TTITLE10=비젼
TTITLE11='慕, 스피릿송
TTITLE12=할렐루야 (헨델의 메시야)
TTITLE13=Good 라이프 성경 (Bonus Track - 엘기획)
TTITLE14=사랑은 (Love is ...)
TTITLE15=함께하시니
TTITLE16=좁은 문으로
EXTD=
EXTT0=
EXTT1=
EXTT2=
EXTT3=
EXTT4=
EXTT5=
EXTT6=
EXTT7=
EXTT8=
EXTT9=
EXTT10=
EXTT11=
EXTT12=
EXTT13=
EXTT14=
EXTT15=
EXTT16=
PLAYORDER=
